<?xml version="1.0" encoding="utf-8"?>
<!-- Generator: Adobe Illustrator 24.2.0, SVG Export Plug-In . SVG Version: 6.00 Build 0)  -->
<svg version="1.1" id="Layer_1" xmlns="http://www.w3.org/2000/svg" xmlns:xlink="http://www.w3.org/1999/xlink" x="0px" y="0px"
	 viewBox="0 0 200 200" style="enable-background:new 0 0 200 200;" xml:space="preserve">
<style type="text/css">
	.st0{fill:#FFFFFF;}
</style>
<g>
	<g>
		<path class="st0" d="M143.1,105c-0.2-20,16.3-29.7,17.1-30.1c-9.4-13.7-23.9-15.5-29-15.7c-12.2-1.3-24,7.3-30.2,7.3
			c-6.3,0-15.9-7.2-26.2-6.9c-13.3,0.2-25.7,7.9-32.5,19.8c-14,24.3-3.6,60,9.9,79.6c6.7,9.6,14.6,20.4,24.9,20
			c10.1-0.4,13.8-6.4,26-6.4c12,0,15.6,6.4,26.1,6.2c10.8-0.2,17.6-9.7,24.1-19.4c7.8-11,10.9-21.9,11-22.4
			C164,136.9,143.3,129,143.1,105z"/>
		<path class="st0" d="M123.3,46.3c5.4-6.8,9.1-16,8.1-25.3c-7.8,0.3-17.6,5.4-23.3,12c-5,5.8-9.5,15.4-8.3,24.4
			C108.6,58.1,117.6,53,123.3,46.3z"/>
	</g>
</g>
</svg>
