<?xml version="1.0" encoding="utf-8"?>
<!-- Generator: Adobe Illustrator 24.2.0, SVG Export Plug-In . SVG Version: 6.00 Build 0)  -->
<svg version="1.1" id="Layer_1" xmlns="http://www.w3.org/2000/svg" xmlns:xlink="http://www.w3.org/1999/xlink" x="0px" y="0px"
	 viewBox="0 0 32 32" style="enable-background:new 0 0 32 32;" xml:space="preserve">
<style type="text/css">
	.st0{fill:#FFFFFF;}
</style>
<g>
	<path class="st0" d="M0,16.7C0.4,25.2,7.4,32,16,32s15.6-6.8,16-15.3c0-0.1,0-0.1,0-0.2c0,0,0-0.1,0-0.1c0-0.1,0-0.3,0-0.4
		c0-8.8-7.2-16-16-16S0,7.2,0,16c0,0.1,0,0.3,0,0.4c0,0,0,0.1,0,0.1C0,16.6,0,16.6,0,16.7z M24.9,22.7c-1.3-0.6-2.7-1-4.2-1.3
		c0.2-1.5,0.3-3,0.3-4.5h5C25.9,19.1,25.5,21,24.9,22.7z M27,17h4c-0.2,2.8-1.1,5.4-2.7,7.6c-0.8-0.5-1.6-1-2.5-1.4
		C26.5,21.3,26.9,19.2,27,17z M12.4,22.3c1.2-0.2,2.4-0.3,3.6-0.3s2.4,0.1,3.6,0.3C18.9,27.6,17.4,31,16,31S13.1,27.6,12.4,22.3z
		 M13.9,30.7c-2.8-0.9-5.1-3.5-6.5-7c1.2-0.5,2.6-0.9,4-1.2C11.9,26,12.7,29,13.9,30.7z M12.3,10.7c1.2,0.2,2.5,0.3,3.7,0.3
		s2.5-0.1,3.7-0.3c0.2,1.6,0.3,3.4,0.3,5.3h-8C12,14.1,12.1,12.3,12.3,10.7z M20,17c0,1.5-0.1,3-0.3,4.3C18.5,21.1,17.3,21,16,21
		s-2.5,0.1-3.7,0.3C12.1,19.7,12,18.2,12,17H20z M20.6,22.5c1.4,0.3,2.7,0.7,4,1.2c-1.4,3.5-3.7,6.1-6.5,7
		C19.3,29,20.1,26,20.6,22.5z M21,16c0-1.8-0.1-3.7-0.3-5.5c1.5-0.3,2.9-0.7,4.2-1.3c0.7,2,1.1,4.3,1.1,6.7H21z M20.6,9.5
		C20.1,6,19.3,3,18.1,1.3c2.8,0.9,5.1,3.5,6.5,7C23.3,8.8,22,9.3,20.6,9.5z M19.6,9.7C18.4,9.9,17.2,10,16,10s-2.4-0.1-3.6-0.3
		C13.1,4.4,14.6,1,16,1S18.9,4.4,19.6,9.7z M11.4,9.5c-1.4-0.3-2.7-0.7-4-1.2c1.4-3.5,3.7-6.1,6.5-7C12.7,3,11.9,6,11.4,9.5z
		 M11.3,10.5C11.1,12.3,11,14.2,11,16H6c0-2.4,0.4-4.7,1.1-6.7C8.4,9.8,9.8,10.2,11.3,10.5z M11,17c0,1.5,0.1,3,0.3,4.5
		c-1.5,0.3-2.9,0.7-4.2,1.3c-0.6-1.7-1-3.7-1-5.7H11z M6.2,23.1c-0.9,0.4-1.7,0.9-2.5,1.4c-1.5-2.2-2.5-4.8-2.7-7.6h4
		C5.1,19.2,5.5,21.3,6.2,23.1z M4.3,25.4c0.7-0.5,1.4-0.9,2.2-1.3c1,2.5,2.4,4.5,4.2,5.9C8.2,29.1,6,27.5,4.3,25.4z M21.3,30
		c1.7-1.4,3.2-3.5,4.2-5.9c0.8,0.4,1.5,0.8,2.2,1.3C26,27.5,23.8,29.1,21.3,30z M27,16c0-2.6-0.4-5-1.2-7.1c0.9-0.4,1.7-0.9,2.5-1.4
		C30,9.9,31,12.8,31,16H27z M27.7,6.6c-0.7,0.5-1.4,0.9-2.2,1.3c-1-2.5-2.4-4.5-4.2-5.9C23.8,2.9,26,4.6,27.7,6.6z M10.7,2
		C9,3.4,7.5,5.4,6.5,7.9C5.7,7.5,5,7.1,4.3,6.6C6,4.6,8.2,2.9,10.7,2z M3.7,7.4c0.8,0.5,1.6,1,2.5,1.4C5.4,11,5,13.4,5,16H1
		C1,12.8,2,9.9,3.7,7.4z"/>
</g>
</svg>
