<?xml version="1.0" encoding="utf-8"?>
<!-- Generator: Adobe Illustrator 24.2.0, SVG Export Plug-In . SVG Version: 6.00 Build 0)  -->
<svg version="1.1" id="Layer_1" xmlns="http://www.w3.org/2000/svg" xmlns:xlink="http://www.w3.org/1999/xlink" x="0px" y="0px"
	 viewBox="0 0 200 150" style="enable-background:new 0 0 200 150;" xml:space="preserve">
<style type="text/css">
	.st0{fill:#4994D0;}
	.st1{fill:#348ECD;}
	.st2{fill:#2B8CCC;}
	.st3{fill:#3B90CE;}
	.st4{fill:#378FCD;}
	.st5{fill:#F6B14B;}
	.st6{fill:#F6B24D;}
	.st7{fill:#A2D5EE;}
</style>
<g>
	<path class="st0" d="M193.6,54c-2,3.6-0.7,5.3-1.6,8.6c-1.7,6.3-4,12.2-11.7,14.7c8.1-8.7,6.6-20.3,10.3-30.3
		c0.8-2.2,2.3-3.8,5.1-3.1C195.7,47,195.2,51.2,193.6,54z"/>
	<path class="st1" d="M179.7,56c-1.2,16.2-15.7,33.5-32.3,37.1c-9,1.9-15.3,4-11.4,15c0.8,2.2,0.2,5.1-0.3,7.5
		c-0.7,3.1-3.1,4.8-6.4,4.5c-3.7-0.3-3.2-3.2-3.3-5.8c-0.2-4.9,1.3-9.9-1.2-16.1c-6,8.2-9.1,16.7-15.5,22.8
		c-2.3,2.2-4.5,5.6-7.8,3.5c-3-2-0.6-5.1,0.5-7.7c0.8-1.7,1.4-3.5,2.2-5.3c2.6-6,4.9-11.5-5.7-11.4c-3.2,0-8-1.9-7.8-5.7
		c0.3-4,5-3.9,8.6-4.4c12.9-1.5,25.7-0.7,38.9-3.8c17.7-4.2,30.2-12.7,39-27.9c0.5-0.8,1.1-1.5,1.7-2.2
		C179,56.1,179.4,56.1,179.7,56z"/>
	<path class="st2" d="M64.7,47.6c5.2,1.1,9.8,4.3,9.7,9.8c-0.3,10.2,5.3,9.8,12.4,8.7c2.9-0.5,6.4-3.3,8.5,0.6
		c1.4,2.5,0.5,5.7-1.5,8c-2.6,3-5.5,4-9.3,1.7c-2.1-1.3-4.7-2.8-7.1-0.6c-2.5,2.2-0.6,4.7,0.1,7c0.7,2.4,1.4,4.9,2.4,7.2
		c5.9,12.9,5.3,15.2-5.9,23.6c-3.9,2.9-12.3,0.3-11-3.4c4-11.7-4.7-20.6-5.6-31.1c-0.7-7.9-1.3-15.8-0.2-23.7
		C57.8,51.4,59.5,48.1,64.7,47.6z"/>
	<path class="st3" d="M56.3,88.3c-10.2,11.7-20.6,15-29.7,10.1C16.7,93.2,8.6,76,11.3,65.8c0.4-1.5,1-3.4,2.1-4.1
		c1.5-0.8,3.4,0.6,3.8,2c2.1,8.1,8.2,6.3,13.8,5.7c1-0.1,1.9-0.3,2.9-0.2c3.2,0.3,8.6-1.7,8.7,2.7c0.1,4.2-4.4,6.2-9.2,6.3
		c-3.1,0-8.4-2.7-8.9,2c-0.6,5.3,4.6,8.2,9.4,9.2C41,90.8,48.3,89,56.3,88.3z"/>
	<path class="st4" d="M145.3,67.4c-6.8,12.1-12,14-22.4,7.9c-4.5-2.6-6.9-3.5-8.8,2.7c-1.3,4.3-3.9,10.6-9.2,8.7
		c-4.1-1.4-2.1-8.2-1.2-12.1c1.4-5.8,3.9-11.3,4.3-17.4c0.1-1.6,1.4-3.1,3.3-2.8c1,0.2,2.8,1.4,2.8,2.1c0,8.9,6.5,8.4,12.6,8.9
		C132.6,65.8,138.6,66.7,145.3,67.4z"/>
	<path class="st5" d="M82.4,25c-4.5,3-7,7.2-10.3,10.6c-2.5,2.6-5.2,5.4-9.1,3.7c-4.6-2-11.4-4-11.2-9.1c0.2-6,7.3-4.6,11.7-5
		C69.8,24.6,76.1,25,82.4,25z"/>
	<path class="st6" d="M138.8,38.7c-7.3,0.9-14.4,1.3-20.5,6.2c-2.6,2.1-6.1,0.9-8.8-1.4c-1.8-1.5-3.3-3.3-2.2-5.7
		c1.4-3,4.5-3.3,7.4-3.5C122.9,33.8,131,34.3,138.8,38.7z"/>
	<path class="st7" d="M4.8,51.4c7.7,0,15.3-0.1,23,0.1c2,0,5.3-0.8,5.1,2.6c-0.2,2.7-2.8,4.5-5.4,4.6c-8.2,0.4-16.1-0.8-23.2-4.8
		C4.5,53,4.7,52.2,4.8,51.4z"/>
</g>
</svg>
